<svg xmlns="http://www.w3.org/2000/svg" xmlns:xlink="http://www.w3.org/1999/xlink" viewBox="0 0 348 296"><defs><linearGradient id="a" x1="-78.39" y1="-51.62" x2="361.61" y2="296.38" gradientUnits="userSpaceOnUse"><stop offset="0" stop-color="#3a81de"/><stop offset="1" stop-color="#3db6de"/></linearGradient><linearGradient id="b" x1="282.8" y1="193.73" x2="373.95" y2="265.81" xlink:href="#a"/><linearGradient id="c" x1="92.34" y1="168.54" x2="-10.21" y2="162.92" xlink:href="#a"/><linearGradient id="d" x1="330.29" y1="45.99" x2="287.94" y2="16.91" xlink:href="#a"/><linearGradient id="e" x1="192.29" y1="154.99" x2="149.94" y2="125.91" xlink:href="#a"/><linearGradient id="f" x1="287.29" y1="159.99" x2="244.94" y2="130.91" xlink:href="#a"/><linearGradient id="g" x1="235.29" y1="264.99" x2="192.94" y2="235.91" xlink:href="#a"/><linearGradient id="h" x1="305.29" y1="91.99" x2="262.94" y2="62.91" xlink:href="#a"/><linearGradient id="i" x1="228.29" y1="63.99" x2="185.94" y2="34.91" xlink:href="#a"/><linearGradient id="j" x1="78.29" y1="50.99" x2="35.94" y2="21.91" xlink:href="#a"/><linearGradient id="k" x1="93.29" y1="237.99" x2="50.94" y2="208.91" xlink:href="#a"/><linearGradient id="l" x1="130.41" y1="100.74" x2="93.17" y2="60.95" xlink:href="#a"/></defs><path fill="url(#a)" d="M0 0h348v296H0z"/><path d="M347.23 179a58 58 0 0 0 0 116h.77V179z" opacity=".7" fill="url(#b)"/><path d="M37 163.5A37.5 37.5 0 0 0 0 126v75a37.5 37.5 0 0 0 37-37.5z" opacity=".7" fill="url(#c)"/><circle cx="307" cy="30" r="18" opacity=".7" fill="url(#d)"/><circle cx="169" cy="139" r="18" opacity=".7" fill="url(#e)"/><circle cx="264" cy="144" r="18" opacity=".7" fill="url(#f)"/><circle cx="212" cy="249" r="18" opacity=".7" fill="url(#g)"/><circle cx="282" cy="76" r="18" opacity=".7" fill="url(#h)"/><circle cx="205" cy="48" r="18" opacity=".7" fill="url(#i)"/><circle cx="55" cy="35" r="18" opacity=".7" fill="url(#j)"/><circle cx="70" cy="222" r="18" opacity=".7" fill="url(#k)"/><circle cx="111" cy="80" r="18" opacity=".7" fill="url(#l)"/></svg>