<svg id="cms" xmlns="http://www.w3.org/2000/svg" viewBox="0 0 720 654"><path d="M657.69 543.26c-5.77-11.92-1-26.5 7-37.06s18.84-18.62 27.56-28.62c17.36-19.95 23.89-53 5.22-71.8-4-4-9.11-7.39-11.36-12.63-3.1-7.21.19-15.39 3.45-22.56l.27-.59a51.77 51.77 0 0 0-28.39-69.75c-15.39-6-29-14.85-38.62-28.27-8.38-11.73-12.69-25.76-17.8-39.22-9.24-24.32-21.73-47.84-40-66.39s-43-31.77-69.07-32.74c-59.62-2.22-108 56.87-167.62 55.8-4.3-.07-8.85-.57-12.26-3.17-4.8-3.69-5.88-10.3-7.59-16.11-9.05-30.74-41.92-47-71.48-59.71l-55.59-23.88c-30.18-13-61.89-26.21-94.64-23.62s-66.3 26.72-67.28 59.41c-.81 26.84 19.76 52 14.89 78.45C31 219.05 16 233.5 12.36 251.7c-3.82 18.94 5.34 38.07 16.33 54 31.62 45.88 79.11 78.07 125.48 109.16 32.67 21.91 65.5 43.9 101.17 60.54 88 40.91 187.48 46.72 283.16 63.13 16.46 2.83 33.65 6 48.3 14.39 11.25 6.45 19.41 20.05 32 23.73 9.59 2.8 24.33-.46 33.18-4.55 16.15-7.5 12.4-15.01 5.71-28.84z" fill="#536dfe" opacity=".1"/><g class="published-posts"><rect x="373" y="168.5" width="317" height="317" rx="12" ry="12" fill="#3498db"/><path fill="none" stroke="#fff" stroke-miterlimit="10" stroke-width="4" d="M373 252.5h317"/><text transform="translate(389.77 225.77)" font-size="34.567" fill="#fff" font-family="Montserrat-Bold,Montserrat" font-weight="700">Publis<tspan x="112.06" y="0" letter-spacing=".006em">h</tspan><tspan x="136.16" y="0">ed </tspan><tspan x="191.67" y="0" letter-spacing="-.011em">P</tspan><tspan x="216.59" y="0" letter-spacing="0em">osts</tspan></text><text transform="translate(499.54 416.19)" font-size="150" fill="#fff" font-family="Montserrat-Bold,Montserrat" font-weight="700">3</text></g><g class="drafts-posts"><rect x="30" y="168.5" width="317" height="317" rx="12" ry="12" fill="#e74c3c"/><path fill="none" stroke="#fff" stroke-miterlimit="10" stroke-width="4" d="M30 252.5h317"/><text transform="translate(82.06 225.77)" font-size="34.567" fill="#fff" font-family="Montserrat-Bold,Montserrat" font-weight="700">D<tspan x="28.55" y="0" letter-spacing="-.007em">r</tspan><tspan x="43.21" y="0">afts </tspan><tspan x="121.09" y="0" letter-spacing="-.011em">P</tspan><tspan x="146.01" y="0">osts</tspan></text><text transform="translate(153.16 416.19)" font-size="150" fill="#fff" font-family="Montserrat-Bold,Montserrat" font-weight="700">9</text></g></svg>