<svg id="e-commerce" xmlns="http://www.w3.org/2000/svg" viewBox="0 0 720 654"><path d="M94.79 83.82c3.7 10.66-4 19.85-14.22 25s-23 7.58-33.92 12.11c-21.72 9.05-34.73 31.26-19 51.19 3.39 4.29 8 8.42 9.35 13 1.84 6.33-3.11 11.29-7.85 15.5l-.39.35c-17.88 15.9-10.58 43.62 16.11 60.63C59.63 271.06 72 282 79.41 295c6.43 11.37 8.23 23.11 11 34.69 4.93 20.92 13.39 42.32 28.77 61.94s38.37 37.39 65.16 46.6c61.19 21 122.36-6.76 183.79 13.45 4.43 1.45 9 3.3 12.06 6.33 4.27 4.27 4.12 9.5 4.79 14.33 3.53 25.6 34.4 48.28 62.54 67.26l52.87 35.67c28.72 19.37 59 39.45 93.31 48.21s73.58 1.89 80.79-21.87c5.92-19.52-10.55-44.77-.51-62.64 7-12.36 25.17-18.12 32.41-30.34 7.53-12.71 1.7-29.79-6.64-45.1-24-44.09-66.93-83.27-109-121.27-29.59-26.77-59.35-53.66-93.06-77.52-83.13-58.74-184.88-95.42-280.63-138.65-16.47-7.44-33.63-15.36-47.18-26.32-10.4-8.41-16.26-21.09-28.57-27.9-9.38-5.18-25.22-7.58-35.15-7.45-18.1.28-15.66 7.03-11.37 19.4z" fill="#536dfe" opacity=".1"/><path id="cart" d="M238.27 444.49a29.79 29.79 0 0 0 8.48 1.36l313.75 2.92h.28a30.5 30.5 0 0 0 29.73-23.69l40.71-177.21A30.5 30.5 0 0 0 620 216.8a14 14 0 0 0-11.27-5.8H607a30.4 30.4 0 0 0-11 0H227.39l-20.49-82a30.62 30.62 0 0 0-14.9-19.28l-58.1-31.94a30.51 30.51 0 1 0-29.4 53.46l46.44 25.53 65.2 260.76L181 445.24a17.43 17.43 0 0 0-6.62 13.69v43.57a17.41 17.41 0 0 0 17.18 17.43l49.2.7a34.8 34.8 0 1 0 48.18.68l230.1 3.23a34.85 34.85 0 1 0 55.08.78l30 .42h.26a17.43 17.43 0 0 0 .23-34.86l-395.37-5.56v-17.94zm327.58-184.58l-29.3 127.61-265.64-2.45-31.3-125.16z" fill="#3498db"/><g class="products-count"><circle cx="553.59" cy="416.64" r="27.41" fill="#fff" id="_Ellipse_" data-name="&lt;Ellipse&gt;"/><path d="M559.27 403.49v26.3h-6.09v-21.42h-5.26v-4.88z" fill="#2ecc71"/></g></svg>