<svg xmlns="http://www.w3.org/2000/svg" xmlns:xlink="http://www.w3.org/1999/xlink" viewBox="0 0 900 489"><defs><linearGradient id="a" y1="87.5" x2="65.5" y2="87.5" gradientUnits="userSpaceOnUse"><stop offset="0" stop-color="#3a81de"/><stop offset="1" stop-color="#3db6de"/></linearGradient><linearGradient id="b" x1="851" y1="33.5" x2="876" y2="33.5" xlink:href="#a"/><linearGradient id="c" x1="835.83" y1="371" x2="900" y2="371" xlink:href="#a"/><linearGradient id="d" x1="65.21" y1="428.8" x2="181" y2="428.8" xlink:href="#a"/><linearGradient id="e" x1="775.97" y1="157.53" x2="902.97" y2="157.53" gradientTransform="matrix(0.99, -0.13, 0.1, 0.79, -7.91, 150.46)" xlink:href="#a"/><linearGradient id="f" x1="111.97" y1="164.71" x2="222.91" y2="164.71" xlink:href="#a"/><linearGradient id="g" x1="618.97" y1="252.71" x2="729.91" y2="252.71" gradientTransform="matrix(-1, 0, 0, 1, 1348.88, 0)" xlink:href="#a"/><linearGradient id="h" x1="244" y1="306.34" x2="298.56" y2="306.34" xlink:href="#a"/><linearGradient id="i" x1="493" y1="398.93" x2="533.12" y2="398.93" xlink:href="#a"/><linearGradient id="j" x1="683" y1="405.93" x2="723.12" y2="405.93" xlink:href="#a"/></defs><title>background-3-cover</title><path d="M0,39s90,25,59,61S0,136,0,136Z" style="fill:url(#a)"/><ellipse cx="863.5" cy="33.5" rx="12.5" ry="16.5" style="fill:url(#b)"/><path d="M900,330s-68,9-64,43,64,39,64,39Z" style="fill:url(#c)"/><path d="M108.82,411.17s40.38-1.51,40.86-11.35,35.63-9.84,30.88,5.3-15.68,48.43-25.66,42.38S115.47,474,108.82,461.88,53.24,453.55,68,428.58,108.82,411.17,108.82,411.17Z" style="fill:url(#d)"/><path d="M898.69,119.85s-70.53,33.34-88.1,27.26-51,35-19.4,44.35,100.9,16.63,106.22,2.92S898.69,119.85,898.69,119.85Z" style="fill:url(#e)"/><path d="M141,190s92-3,81-26-112-36-110-11S141,190,141,190Z" style="fill:url(#f)"/><path d="M700.88,278s-92-3-81-26,112-36,110-11S700.88,278,700.88,278Z" style="fill:url(#g)"/><path d="M244,283c52-1,62,35,50,38s-36,18-38,0S244,283,244,283Z" style="fill:url(#h)"/><path d="M497,371c41,24,42,30,28,40s-19,26-28,7S497,371,497,371Z" style="fill:url(#i)"/><path d="M687,378c41,24,42,30,28,40s-19,26-28,7S687,378,687,378Z" style="fill:url(#j)"/></svg>