<svg id="e-commerce" xmlns="http://www.w3.org/2000/svg" xmlns:xlink="http://www.w3.org/1999/xlink" viewBox="0 0 543.32 506.94">
  <defs>
    <linearGradient id="New_Gradient_Swatch_3" data-name="New Gradient Swatch 3" x1="88.68" y1="327.47" x2="632" y2="327.47" gradientUnits="userSpaceOnUse">
      <stop offset="0" stop-color="#3a81de"/>
      <stop offset="1" stop-color="#3db6de"/>
    </linearGradient>
    <linearGradient id="New_Gradient_Swatch_3-2" x1="536.26" y1="423.16" x2="551.97" y2="423.16" xlink:href="#New_Gradient_Swatch_3"/>
  </defs>
  <title>ecommerce</title>
  <path class="cart" d="M238.27,444.49a29.79,29.79,0,0,0,8.48,1.36l313.75,2.92h.28a30.5,30.5,0,0,0,29.73-23.69l40.71-177.21A30.5,30.5,0,0,0,620,216.8,14,14,0,0,0,608.73,211H607a30.4,30.4,0,0,0-11,0H227.39l-20.49-82A30.62,30.62,0,0,0,192,109.72L133.9,77.78a30.51,30.51,0,1,0-29.4,53.46l46.44,25.53,65.2,260.76L181,445.24a17.43,17.43,0,0,0-6.62,13.69V502.5a17.41,17.41,0,0,0,17.18,17.43l49.2.7a34.8,34.8,0,1,0,48.18.68l230.1,3.23a34.85,34.85,0,1,0,55.08.78l30,.42h.26a17.43,17.43,0,0,0,.23-34.86l-395.37-5.56V467.38ZM565.85,259.91l-29.3,127.61-265.64-2.45-31.3-125.16Z" transform="translate(-88.68 -74)" style="fill: url(#New_Gradient_Swatch_3)"/>
  <g class="products-count">
    <g id="_Ellipse_" data-name="&lt;Ellipse&gt;">
      <circle cx="464.91" cy="342.64" r="27.41" style="fill: #fff"/>
    </g>
    <path d="M559.27,403.49v26.3h-6.09V408.37h-5.26v-4.88Z" transform="translate(-88.68 -74)" style="fill: url(#New_Gradient_Swatch_3-2)"/>
  </g>
</svg>
