<svg id="useless-routes" xmlns="http://www.w3.org/2000/svg" viewBox="0 0 640 480">
  <title>useless-routes</title>
  
  <g class="background" style="opacity: 0.1">
    <path d="M511,410.31c-2.9-7.56,2.4-14.32,9.65-18.26s16.34-5.94,24.08-9.42c15.39-7,24.22-23.17,12.47-37.11-2.53-3-5.95-5.86-7-9.12-1.46-4.5,2-8.16,5.28-11.28l.27-.26c12.48-11.79,6.59-31.5-13-43.11-10.83-6.42-20-14-25.59-23.18-4.89-8-6.45-16.38-8.67-24.62-4-14.89-10.6-30-22.11-43.77a104,104,0,0,0-47.89-32c-44.45-13.75-87.75,7.52-132.35-5.62-3.22-.94-6.57-2.17-8.81-4.27-3.17-3-3.19-6.72-3.78-10.17C290.4,119.87,267.7,104.28,247,91.29L208.23,66.88c-21.08-13.26-43.29-27-68.15-32.51s-52.9.25-57.54,17.44c-3.8,14.12,8.62,31.86,1.82,44.89-4.7,9-17.66,13.54-22.58,22.45-5.12,9.28-.53,21.39,5.81,32.19,18.25,31.08,50,58.22,81.1,84.54,21.88,18.54,43.88,37.16,68.65,53.53,61.08,40.31,135,64.37,204.83,93.27,12,5,24.51,10.28,34.5,17.84,7.67,5.8,12.17,14.76,21.17,19.37,6.86,3.51,18.3,4.88,25.43,4.57C516.27,423.86,514.35,419.08,511,410.31Z" style="fill: #536dfe"/>
  </g>
  <g class="useless">
    <g>
      <path d="M300.64,92v12.64H275a5.46,5.46,0,0,0-5.46,5.45v68.19a5.46,5.46,0,0,0,5.46,5.44H380.21a5.46,5.46,0,0,0,5.47-5.44V110.09a5.47,5.47,0,0,0-5.47-5.45H354.53V92H349v12.64H306.2V92Zm60.72,77.72H293.83v-7.28h67.53Zm-6.82-48a10,10,0,1,1-10,10A10,10,0,0,1,354.54,121.67Zm-43.9,10a10,10,0,1,1-10-10A10,10,0,0,1,310.64,131.72Z" style="fill: #e74c3c"/>
      <g>
        <rect x="233.36" y="190.52" width="20.86" height="58.73" style="fill: #e74c3c"/>
        <rect x="233.36" y="253.49" width="20.86" height="58.73" style="fill: #e74c3c"/>
        <path d="M251.05,350.8v7.9a23.16,23.16,0,1,0-14.5,0v-7.9a15.92,15.92,0,1,1,14.5,0Z" style="fill: #e74c3c"/>
      </g>
      <g>
        <rect x="401.54" y="190.52" width="20.87" height="58.73" style="fill: #e74c3c"/>
        <rect x="401.54" y="253.49" width="20.87" height="58.73" style="fill: #e74c3c"/>
        <path d="M419.24,350.8v7.9a23.17,23.17,0,1,0-14.51,0v-7.9a15.92,15.92,0,1,1,14.51,0Z" style="fill: #e74c3c"/>
      </g>
      <path d="M263.49,187.35a5.45,5.45,0,0,0-5.45,5.46v96.83a5.46,5.46,0,0,0,5.45,5.46H391.67a5.46,5.46,0,0,0,5.45-5.46V192.81a5.45,5.45,0,0,0-5.45-5.46Zm107.66,75.32a8.12,8.12,0,0,1-8.12,8.11H337.62l17.24-17.25a5.06,5.06,0,0,0-7.15-7.15l-24.4,24.4H292.13a8.11,8.11,0,0,1-8.11-8.11V234.31a8.11,8.11,0,0,1,8.11-8.12H363a8.13,8.13,0,0,1,8.12,8.12Z" style="fill: #e74c3c"/>
    </g>
    <g>
      <rect x="285.24" y="301" width="34.44" height="53.69" style="fill: #e74c3c"/>
      <rect x="285.24" y="360.28" width="34.44" height="25.45" style="fill: #e74c3c"/>
      <path d="M276.34,389.2c-5.46,0-9.88,5.11-9.88,11.39S270.88,412,276.34,412h39c5.47,0,9.9-5.11,9.9-11.41s-4.43-11.39-9.9-11.39Z" style="fill: #e74c3c"/>
      <rect x="336.12" y="301" width="34.44" height="53.69" style="fill: #e74c3c"/>
      <rect x="336.12" y="360.28" width="34.44" height="25.45" style="fill: #e74c3c"/>
      <path d="M340.45,389.2c-5.47,0-9.89,5.11-9.89,11.39S335,412,340.45,412h39c5.45,0,9.89-5.11,9.89-11.41s-4.44-11.39-9.89-11.39Z" style="fill: #e74c3c"/>
    </g>
  </g>

</svg>
