<svg id="tools-routes" xmlns="http://www.w3.org/2000/svg" viewBox="0 0 640 480"><path class="background" d="M190 408s-59-126-75-126-126-57-51-132 206-11 253-108 315 82 257 114-143 142-121 183 68 105 22 102-285-33-285-33z" fill="#536dfe" opacity=".1"/><g class="tools"><path class="tool-1" d="M432.58 85.31a68.73 68.73 0 0 0-27.07-55.53 3.75 3.75 0 0 0-6 3v47.9l-35.84 22-35.84-22V32.75a3.74 3.74 0 0 0-6-3 68.87 68.87 0 0 0 14.45 118v194.68a68.82 68.82 0 0 0-14.48 117.91 3.75 3.75 0 0 0 6-3v-47.9l35.84-22 35.84 22v47.91a3.75 3.75 0 0 0 6 3 68.88 68.88 0 0 0-14.46-118V147.69a68.91 68.91 0 0 0 41.56-62.38z" fill="#3498db"/><path class="tool-2" d="M253 228.83h-21.51V100.72l9.42-14.91L229.52 29h-22.78l-11.4 56.81 9.43 14.91v128.11h-21.54c-2.92 0-5.29 2.7-5.29 6v10.37c0 3.33 2.37 6 5.29 6h1.19a48.45 48.45 0 0 0-6.48 24.45v144.19c0 24.38 17.34 44.16 38.75 44.16h2.88c21.4 0 38.76-19.78 38.76-44.16V275.68a48.46 48.46 0 0 0-6.49-24.45H253c2.93 0 5.3-2.7 5.3-6v-10.37c.03-3.33-2.3-6.03-5.3-6.03zm-56.08 205.36h-8.66v-158.5h8.66zm25.06 0h-8.66v-158.5H222zm25.06 0h-8.67v-158.5H247z" fill="#2ecc71"/></g></svg>