<svg id="science-routes" xmlns="http://www.w3.org/2000/svg" viewBox="0 0 640 480">
  <title>science-routes</title>
  
  <g class="background" style="opacity: 0.1">
    <path d="M140.77,65.84c2.46,7.09-2.64,13.2-9.45,16.65s-15.29,5-22.55,8.05c-14.44,6-23.09,20.78-12.64,34,2.25,2.86,5.33,5.6,6.21,8.65,1.23,4.2-2.06,7.5-5.21,10.3l-.26.23c-11.89,10.57-7,29,10.71,40.31,9.82,6.26,18.07,13.55,23,22.2,4.27,7.56,5.47,15.36,7.28,23.06,3.28,13.91,8.9,28.13,19.12,41.18a96.06,96.06,0,0,0,43.32,31c40.68,14,81.34-4.5,122.18,8.94,2.95,1,6,2.19,8,4.2,2.84,2.85,2.74,6.32,3.19,9.53,2.34,17,22.87,32.1,41.57,44.72l35.15,23.71c19.09,12.88,39.21,26.23,62,32.05s48.92,1.25,53.71-14.54c3.94-13-7-29.76-.33-41.64,4.61-8.22,16.73-12.05,21.54-20.17,5-8.45,1.13-19.8-4.41-30C527,289,498.42,262.94,470.48,237.68,450.81,219.88,431,202,408.62,186.14c-55.26-39.07-122.91-63.45-186.57-92.2C211.11,89,199.7,83.73,190.69,76.45c-6.91-5.59-10.81-14-19-18.55-6.24-3.44-16.77-5-23.37-4.95C136.3,53.13,137.92,57.62,140.77,65.84Z" style="fill: #536dfe"/>
  </g>
  <g class="science-lamb">
    <polygon points="288.43 356.93 365.29 342.12 365.64 331.6 288.03 346.54 288.43 356.93" style="fill: none"/>
    <polygon points="289.11 374.45 364.7 359.89 365.05 349.37 288.71 364.08 289.11 374.45" style="fill: none"/>
    <path d="M289.39,382.05a.57.57,0,0,0,.44.35h73.76a.47.47,0,0,0,.38-.31l.5-15L289.38,381.6Z" style="fill: none"/>
    <polygon points="339.97 325.47 340.06 323.05 311.29 323.05 303.33 323.05 287.14 323.05 287.76 339.4 365.88 324.35 365.92 323.05 348 323.05 347.91 325.47 339.97 325.47" style="fill: none"/>
    <path d="M325.67,89.34a111.3,111.3,0,0,0-57.78,206.43L271.18,378A20.1,20.1,0,0,0,288,396.84c3.46,10.35,19,18.16,37.68,18.16s34-7.7,37.61-17.94A20,20,0,0,0,382.11,378L385,294.83A111.29,111.29,0,0,0,325.67,89.34ZM364,382.09a.47.47,0,0,1-.38.31H289.83a.57.57,0,0,1-.44-.35v-.45l75.09-14.47Zm.73-22.2-75.59,14.56-.4-10.37,76.34-14.71Zm.59-17.77-76.86,14.81-.4-10.39,77.61-14.94Zm18.14-129.79-33.52,60.08L348,323.05h17.92l-.05,1.3-78.11,15-.62-16.35h16.19l-1.89-50.64L267.9,212.33a4.17,4.17,0,0,1,1.46-5.33l.08-.07.05,0a3.86,3.86,0,0,1,2-.65H378.86a4.13,4.13,0,0,1,1.11.22,3.87,3.87,0,0,1,1.94.45A4,4,0,0,1,383.43,212.33Z" style="fill: #f1c40f"/>
    <path d="M342,271.17a3.89,3.89,0,0,1,.5-1.8l21.85-39.16h0l2.5-4.41,6.52-11.67H278l6.52,11.69h0l2.44,4.29h-.05l21.92,39.26a4.15,4.15,0,0,1,.5,1.8l2,51.88h28.77Z" style="fill: #f1c40f"/>
  </g>

</svg>
