<svg id="tools-routes" xmlns="http://www.w3.org/2000/svg" viewBox="0 0 640 480">
  <title>tools-routes</title>
  <path class="background" d="M190,408s-59-126-75-126S-11,225,64,150,270,139,317,42s315,82,257,114S431,298,453,339s68,105,22,102S190,408,190,408Z" style="fill: #536dfe;opacity: 0.1"/>
  <g class="tools">
    <path class="tool-1" d="M432.58,85.31a68.73,68.73,0,0,0-27.07-55.53,3.75,3.75,0,0,0-6,3v47.9l-35.84,22-35.84-22V32.75a3.74,3.74,0,0,0-6-3,68.87,68.87,0,0,0,14.45,118V342.43A68.82,68.82,0,0,0,321.8,460.34a3.75,3.75,0,0,0,6-3v-47.9l35.84-22,35.84,22v47.91a3.75,3.75,0,0,0,6,3,68.88,68.88,0,0,0-14.46-118V147.69A68.91,68.91,0,0,0,432.58,85.31Z" style="fill: #3498db"/>
    <path class="tool-2" d="M253,228.83H231.49V100.72l9.42-14.91L229.52,29H206.74l-11.4,56.81,9.43,14.91V228.83H183.23c-2.92,0-5.29,2.7-5.29,6V245.2c0,3.33,2.37,6,5.29,6h1.19a48.45,48.45,0,0,0-6.48,24.45V419.84c0,24.38,17.34,44.16,38.75,44.16h2.88c21.4,0,38.76-19.78,38.76-44.16V275.68a48.46,48.46,0,0,0-6.49-24.45H253c2.93,0,5.3-2.7,5.3-6V234.86C258.33,231.53,256,228.83,253,228.83ZM196.92,434.19h-8.66V275.69h8.66Zm25.06,0h-8.66V275.69H222Zm25.06,0h-8.67V275.69H247Z" style="fill: #2ecc71"/>
  </g>
</svg>
