<svg id="marketing" xmlns="http://www.w3.org/2000/svg" viewBox="0 0 720 654"><path class="background" d="M452.42 214c-38.52-13.29-72.36-35-104.23-57.18s-63-45.4-99.13-63.16c-23.21-11.4-50.95-20.66-73.92-16.33-22.1 4.19-33.7 19.77-42.09 35-6.31 11.44-11.8 23.84-8.62 37.41 2.21 9.41 8.46 18.71 11.84 28.13 11.78 32.78-12.67 60.95-42.56 79.94-14 8.9-29.49 16.75-41.45 27.18S32 309 34.8 324.36s15.94 30.11 31.42 42.54c31.45 25.26 72.42 42.53 112.89 57.74 89.59 33.66 181.93 60.28 274 86.82 34.08 9.82 68.31 19.68 102.91 25.92 19.22 3.46 39.46 5.75 55.69 1 20.61-6 30.89-24 24-41.83-11.63-29.94-62.68-52.51-68-82.4-2.92-16.45 9.59-29.82 24.38-39.58 31.8-20.92 78-33.49 90.16-65 8.33-21.64-3.24-49.57-28.55-69-26.53-20.38-68.55-32.06-96.37-20.87-28.6 11.47-70.89 6.08-104.91-5.7z" style="isolation:isolate" fill="#4285f4" opacity=".1"/><g class="speaker" fill="#3498db"><path d="M209 266.54a111.09 111.09 0 0 0-11.2-.56c-40.21 0-72.8 20.9-72.8 46.67s32.59 46.66 72.8 46.66c3.81 0 7.55-.19 11.2-.55zM256.41 505.65h-67.2v-131.4h43.31l23.89 131.4zM440.21 151.75a7.08 7.08 0 0 0-7.09 7.09v8.6l-213.48 99.1v92.77l213.48 83.85v9.11a7.09 7.09 0 0 0 14.18 0V158.84a7.08 7.08 0 0 0-7.09-7.09z"/></g><g class="speaker-effect"><path d="M471.76 266.23a39 39 0 0 0-8.14.86V344a39.32 39.32 0 1 0 8.14-77.79z" fill="#3498db"/><path d="M482.07 384.9a80 80 0 0 0 0-158.7M482.07 421.05a116 116 0 0 0 0-231M482.07 455.41a150.21 150.21 0 0 0 0-299.71" fill="none" stroke="#2ecc71" stroke-linecap="round" stroke-miterlimit="10" stroke-width="10.653"/></g></svg>