<svg id="mobile-application" xmlns="http://www.w3.org/2000/svg" viewBox="0 0 720 654"><path d="M648.13 198.89c-13.4.37-27.59-7.82-37-17.1s-15.74-19.79-24.45-29.46c-17.38-19.18-50.31-34.64-73.23-27-4.94 1.64-9.35 4.29-15.17 4.25-8-.06-15.88-5.12-22.68-9.83l-.56-.39c-25.64-17.79-61-18.63-77.39-1.72a64.46 64.46 0 0 1-36.42 19.17c-13.69 2.36-29 1-43.86.38-26.86-1.09-53.5.47-76.08 7.88s-40.86 21.23-46.73 40.06c-13.42 43 38.64 97.56 26.4 141-.88 3.13-2.24 6.3-5.57 8-4.71 2.34-11.74 1-18.06.36-33.47-3.3-56.42 15.54-75.06 33.11l-35 33c-19 17.93-38.63 36.91-42.07 61.75s15.21 57.14 48.8 68.42c27.6 9.28 57.47 2.34 83.86 14.45 18.24 8.37 30.38 24 48.51 32.6 18.86 8.92 40.34 8.39 58.87 5.49 53.31-8.35 95.44-32.77 136.23-56.72 28.74-16.87 57.6-33.83 81.45-54.61 58.69-51.27 83.27-122.37 118.08-187.23 6-11.15 12.47-22.75 23.89-30.75 8.76-6.16 24.34-7.75 30.49-15.79 4.69-6.13 4.07-18 1.5-25.8-4.75-14.28-13.21-13.96-28.75-13.52z" fill="#536dfe" opacity=".1"/><g class="layout"><path d="M239 138.5h214.78A15.22 15.22 0 0 1 469 153.72v364.83a23.95 23.95 0 0 1-23.95 23.95h-197.3a23.95 23.95 0 0 1-23.95-23.95V153.72A15.22 15.22 0 0 1 239 138.5z" fill="#fff" stroke="#3498db" stroke-miterlimit="10" stroke-width="9.482"/><path d="M275.88 138.54h140.24a4.88 4.88 0 0 1 4.88 4.88V150a2 2 0 0 1-2 2H273a2 2 0 0 1-2-2v-6.58a4.88 4.88 0 0 1 4.88-4.88z" transform="rotate(-180 346 145.27)" fill="#3498db"/></g><g class="user-profile"><circle cx="346.78" cy="209.25" r="43.75" fill="#2ecc71"/><g fill="#fff"><circle cx="346.78" cy="198.2" r="19.02"/><path d="M375 239.33h-56.49a16.69 16.69 0 0 1 16.67-15.94h23.2A16.68 16.68 0 0 1 375 239.33z"/></g></g><g class="grids"><rect class="grid-1" x="244" y="271.95" width="209" height="37.05" rx="7.15" ry="7.15" fill="#ecf0f1"/><rect class="grid-2" x="241" y="327.95" width="209" height="37.05" rx="7.15" ry="7.15" fill="#ecf0f1"/><rect class="grid-3" x="241" y="383.95" width="209" height="37.05" rx="7.15" ry="7.15" fill="#ecf0f1"/><rect class="grid-4" x="241" y="439.95" width="209" height="37.05" rx="7.15" ry="7.15" fill="#ecf0f1"/><rect class="grid-5" x="241" y="495.95" width="209" height="37.05" rx="7.15" ry="7.15" fill="#ecf0f1"/></g></svg>