<svg id="crm" xmlns="http://www.w3.org/2000/svg" viewBox="0 0 720 654"><path class="background" d="M132.89 136.32s177.64-70.47 177.64 0S771.49 242 669.18 363.2s-79.82 261.26-179.89 153-74.2 122.89-232.73-21.49-295.68-257-168.64-259.54 44.97-98.85 44.97-98.85z" fill="#536dfe" opacity=".1"/><g class="client" fill="#3498db"><path d="M445.51 344.31c-1 .92-2 1.8-3.05 2.68s-2.1 1.78-3.19 2.66q-3.31 2.64-6.82 5.09l-48.2 99-9.61-57 14.26-22.92q-2.59.57-5.24 1a119.42 119.42 0 0 1-13.73 1.63c-2.53.16-5.09.27-7.68.27a123.2 123.2 0 0 1-28.73-3.42L348 396.76l-9 58.05-53.4-104.93c-2.45-1.95-4.84-4-7.15-6.15l-1 .85c-71.49 61.82-70.51 170-70.43 174.58l.07 3.84H513l-.15-4.06c-5.08-125-55.07-166.33-67.34-174.63z"/><path d="M362.25 138.68a114.83 114.83 0 1 0 114.84 114.83 115 115 0 0 0-114.84-114.83z"/></g><g class="success"><path class="success-bar-1" fill="#2ecc71" d="M640.2 245.61h44.17v101.17H640.2z"/><path class="success-bar-2" fill="#2ecc71" d="M588.41 274.51h44.17v72.27h-44.17z"/><path class="success-bar-3" fill="#2ecc71" d="M536.62 298.6h44.16v48.18h-44.16z"/><path class="success-arrow" d="M632.84 184.83l14.16 6.93c-30.53 72.36-109.26 66.06-109.26 66.06 76.5 16.66 106.53-23.18 125.53-55.48l13.9 8.35-7-41.69z" fill="#2ecc71"/><path class="success-bar" fill="#2ecc71" d="M527.79 353.6H694v8.03H527.79z"/></g><path class="client-love" d="M162.42 212.65c-16.56-4.27-38.54.87-51.43 18.28a49.59 49.59 0 0 0-51.83-18.51C41.17 217.23 30 232.2 30 251.5c0 44.12 75.47 97.51 78.68 99.76a4.09 4.09 0 0 0 4.69 0c3.22-2.25 78.69-55.64 78.69-99.76 0-19.26-11.36-34.15-29.64-38.85zm-15.7 100A352.87 352.87 0 0 1 111 342.86a349.76 349.76 0 0 1-35.62-30.15c-24.36-23.79-37.23-45-37.23-61.21 0-15.66 8.63-27.31 23.09-31.17a37.74 37.74 0 0 1 9.8-1.25 41.62 41.62 0 0 1 36.41 21.4 4 4 0 0 0 3.58 2 4.09 4.09 0 0 0 3.55-2.11c10-18.18 30.62-23.74 45.78-19.84 14.71 3.79 23.49 15.35 23.49 30.93.03 16.27-12.85 37.41-37.13 61.18z" fill="#e74c3c"/></svg>