<svg id="useless-routes" xmlns="http://www.w3.org/2000/svg" viewBox="0 0 640 480"><path d="M511 410.31c-2.9-7.56 2.4-14.32 9.65-18.26s16.34-5.94 24.08-9.42c15.39-7 24.22-23.17 12.47-37.11-2.53-3-5.95-5.86-7-9.12-1.46-4.5 2-8.16 5.28-11.28l.27-.26c12.48-11.79 6.59-31.5-13-43.11-10.83-6.42-20-14-25.59-23.18-4.89-8-6.45-16.38-8.67-24.62-4-14.89-10.6-30-22.11-43.77a104 104 0 0 0-47.89-32c-44.45-13.75-87.75 7.52-132.35-5.62-3.22-.94-6.57-2.17-8.81-4.27-3.17-3-3.19-6.72-3.78-10.17-3.15-18.25-25.85-33.84-46.55-46.83l-38.77-24.41c-21.08-13.26-43.29-27-68.15-32.51s-52.9.25-57.54 17.44c-3.8 14.12 8.62 31.86 1.82 44.89-4.7 9-17.66 13.54-22.58 22.45-5.12 9.28-.53 21.39 5.81 32.19 18.25 31.08 50 58.22 81.1 84.54 21.88 18.54 43.88 37.16 68.65 53.53 61.08 40.31 135 64.37 204.83 93.27 12 5 24.51 10.28 34.5 17.84 7.67 5.8 12.17 14.76 21.17 19.37 6.86 3.51 18.3 4.88 25.43 4.57 13-.6 11.08-5.38 7.73-14.15z" fill="#536dfe" opacity=".1"/><g class="useless" fill="#e74c3c"><path d="M300.64 92v12.64H275a5.46 5.46 0 0 0-5.46 5.45v68.19a5.46 5.46 0 0 0 5.46 5.44h105.21a5.46 5.46 0 0 0 5.47-5.44v-68.19a5.47 5.47 0 0 0-5.47-5.45h-25.68V92H349v12.64h-42.8V92zm60.72 77.72h-67.53v-7.28h67.53zm-6.82-48a10 10 0 1 1-10 10 10 10 0 0 1 10-10.05zm-43.9 10a10 10 0 1 1-10-10 10 10 0 0 1 10 10zM233.36 190.52h20.86v58.73h-20.86zM233.36 253.49h20.86v58.73h-20.86z"/><path d="M251.05 350.8v7.9a23.16 23.16 0 1 0-14.5 0v-7.9a15.92 15.92 0 1 1 14.5 0z"/><g><path d="M401.54 190.52h20.87v58.73h-20.87zM401.54 253.49h20.87v58.73h-20.87z"/><path d="M419.24 350.8v7.9a23.17 23.17 0 1 0-14.51 0v-7.9a15.92 15.92 0 1 1 14.51 0z"/></g><path d="M263.49 187.35a5.45 5.45 0 0 0-5.45 5.46v96.83a5.46 5.46 0 0 0 5.45 5.46h128.18a5.46 5.46 0 0 0 5.45-5.46v-96.83a5.45 5.45 0 0 0-5.45-5.46zm107.66 75.32a8.12 8.12 0 0 1-8.12 8.11h-25.41l17.24-17.25a5.06 5.06 0 0 0-7.15-7.15l-24.4 24.4h-31.18a8.11 8.11 0 0 1-8.11-8.11v-28.36a8.11 8.11 0 0 1 8.11-8.12H363a8.13 8.13 0 0 1 8.12 8.12z"/><g><path d="M285.24 301h34.44v53.69h-34.44zM285.24 360.28h34.44v25.45h-34.44zM276.34 389.2c-5.46 0-9.88 5.11-9.88 11.39s4.42 11.41 9.88 11.41h39c5.47 0 9.9-5.11 9.9-11.41s-4.43-11.39-9.9-11.39zM336.12 301h34.44v53.69h-34.44zM336.12 360.28h34.44v25.45h-34.44zM340.45 389.2c-5.47 0-9.89 5.11-9.89 11.39S335 412 340.45 412h39c5.45 0 9.89-5.11 9.89-11.41s-4.44-11.39-9.89-11.39z"/></g></g></svg>